# xmcd CD database file
#
# Track frame offsets:
#	150
#	16430
#	28922
#	45207
#	57655
#	71647
#	90587
#	104392
#	115240
#	133915
#
# Disc length: 1926 seconds
#
# Revision: 0
# Processed by: cddbd v1.5.1PL0 Copyright (c) Steve Scherf et al.
# Submitted via: CDex 1.51
#
DISCID=8a07840a
DTITLE=coba(Disney) - ミッキーは泣かない〜ディズニー愛のベスト〜
DYEAR=2000
DGENRE=Anime
TTITLE0=PART OF YOUR WORLD (THE LITTLE MERMAID)
TTITLE1=CHIM CHIM CHER-EE (MARY POPPINS)
TTITLE2=BEAUTY AND THE BEAST (BEAUTY AND THE BEAST)
TTITLE3=BELLA NOTTE (LADY AND THE TRAMP)
TTITLE4=WHEN YOU WISH UPON A STAR (PINOCCHIO)
TTITLE5=FEED THE BIRDS[TUPPENCE BAG] (MARY POPPINS)
TTITLE6=ONCE UPON A DREAM (SLEEPING BEAUTY)
TTITLE7=BIBBIDI-BOBBIDI-BOO (CINDERELLA)
TTITLE8=A WHOLE NEW WORLD (ALADDIN)
TTITLE9=REFLECTION (MULAN)
EXTD=YEAR: 2000
EXTT0=
EXTT1=
EXTT2=
EXTT3=
EXTT4=
EXTT5=
EXTT6=
EXTT7=
EXTT8=
EXTT9=
PLAYORDER=
